<?xml version="1.0" encoding="utf-8"?>
<!-- Generator: Adobe Illustrator 19.0.0, SVG Export Plug-In . SVG Version: 6.00 Build 0)  -->
<svg version="1.1" id="Layer_1_copy" xmlns="http://www.w3.org/2000/svg" xmlns:xlink="http://www.w3.org/1999/xlink" x="0px"
	 y="0px" viewBox="-84 47 172.2 61" style="enable-background:new -84 47 172.2 61;" xml:space="preserve">
<style type="text/css">
	.st0{fill:#FFFFFF;}
	.st1{fill:#194B9B;}
	.st2{fill:#0071BC;}
	.st3{fill:#053D7F;}
	.st4{fill:#046DA8;}
	.st5{fill:#093B8C;}
	.st6{fill:#17507F;}
	.st7{fill:#0C408C;}
	.st8{fill:#0A487C;}
	.st9{fill:#094D91;}
	.st10{fill:#1560BA;}
	.st11{fill:#0F52A3;}
	.st12{fill:#5688D8;}
	.st13{fill:#2E6FD8;}
	.st14{fill:#073277;}
	.st15{fill:#3E75CE;}
	.st16{fill:#3483D1;}
	.st17{fill:#659BEA;}
	.st18{fill:#195693;}
	.st19{fill:#1A66C1;}
	.st20{fill:#88B0E2;}
	.st21{fill:#73A2E5;}
	.st22{fill:#2069D3;}
	.st23{fill:#153F72;}
	.st24{fill:#0F3860;}
	.st25{fill:#174587;}
</style>
<g id="XMLID_104_">
	<g id="XMLID_5_">
		<path id="XMLID_63_" class="st0" d="M87.1,80.4c-0.3,0.5-0.6,0.8-0.7,1c-0.6,0.9-1.1,1.5-1.7,1.9c-0.2,0.2-0.4,0.2-0.6,0.2
			c-0.1,0-0.3-0.1-0.4-0.2s-0.2-0.3-0.2-0.4c0-0.3,0.1-0.9,0.4-1.8L87,70.7c0.4-1.3,0.6-2.4,0.6-3.3c0-1-0.3-1.9-0.9-2.5
			c-0.6-0.6-1.3-0.9-2.1-0.9c-1,0-2,0.3-3.1,0.9s-2.3,1.7-3.8,3.3c-1,1.1-2.6,3.6-4.8,6.8l6.3-21.7H78l-8.1,1.2l-0.2,0.9
			c0.9,0,1.5,0,1.9,0.3c0.3,0.2,0.5,0.5,0.5,0.9c0,0.5-0.2,1.3-0.5,2.5L68.7,69c0-0.2,0.1-0.5,0.1-0.8c0-1.2-0.5-2.2-1.4-3
			S65.1,64,63.3,64c-2.3,0-4.6,0.7-7,2.2s-4.3,3.5-5.7,6.1s-2.2,5.2-2.2,7.8c0,0.6,0.1,1.1,0.2,1.7c-0.4,0.6-0.9,1.1-1.3,1.4
			c-0.2,0.1-0.3,0.2-0.5,0.2c-0.1,0-0.3-0.1-0.4-0.2s-0.2-0.3-0.2-0.4c0-0.3,0.1-0.9,0.4-1.8l3.1-10.4c0.4-1.3,0.6-2.4,0.6-3.3
			c0-1-0.3-1.8-0.9-2.4S48.1,64,47.2,64s-1.9,0.3-3,0.9s-2.3,1.7-3.8,3.3c-1,1.1-2.5,2.8-4.5,5.9l3-10.8h-1.5l-7.1,1.3l0.4-1.3h-1.5
			l-6.5,1.3l0.2-0.3h-3.5c1-3,2.3-6.9,4-8.8c0.3-0.4,0.6-0.6,0.9-0.8h0.1c0,0,0,0.1-0.1,0.1c-0.3,0.5-0.4,1.1-0.4,1.7
			c0,1,0.3,1.8,1,2.5s1.5,1,2.5,1s1.8-0.3,2.5-1s1-1.5,1-2.5c0-0.5-0.1-1-0.3-1.4c-0.2-0.4-0.4-0.8-0.7-1.1c-0.3-0.3-0.6-0.5-1-0.7
			c-0.3-0.1-0.7-0.2-1.2-0.3h-0.4c-0.3,0-0.6-0.1-1-0.1c-2.4,0-4.6,0.7-6.6,2.1c-2,1.4-3.9,3.8-5.6,7.1c-0.6,1.1-1.2,1.9-1.8,2.2
			c-0.6,0.3-1.4,0.4-2.7,0.3l-0.8,2.7h3.4l-5,19.5c-0.8,3.2-1.4,5.2-1.7,6c-0.4,1.1-1.1,2-1.9,2.8c-0.3,0.3-0.8,0.5-1.2,0.5
			c-0.1,0-0.2,0-0.3-0.1L2,95.9c0-0.1,0.1-0.2,0.4-0.5c0.2-0.3,0.4-0.6,0.4-1.2s-0.2-1-0.6-1.4s-0.9-0.6-1.7-0.6
			c-0.9,0-1.6,0.2-2.1,0.7s-0.8,1.1-0.8,1.7c0,0.7,0.3,1.3,1,1.9c0.6,0.5,1.7,0.8,3,0.8c2.2,0,4.1-0.6,5.8-1.7s3.2-2.9,4.4-5.3
			c1.3-2.4,2.6-6.3,3.9-11.6l2.8-11.4h3.4l0.3-0.9c0.2,0.1,0.4,0.2,0.5,0.3c0.3,0.3,0.5,0.6,0.5,0.9c0,0.6-0.2,1.4-0.5,2.5
			l-3.4,11.6c-0.3,0.9-0.4,1.7-0.4,2.3c0,0.9,0.3,1.7,0.9,2.2c0.6,0.6,1.5,0.9,2.5,0.9c1.4,0,2.8-0.7,4.1-1.8l-0.3,0.9h6.2l2-7.1
			c2.1-4.2,4.3-7.4,6.5-9.5c0.9-0.8,1.6-1.2,2.2-1.2c0.2,0,0.4,0.1,0.5,0.2s0.2,0.3,0.2,0.5c0,0.3-0.1,0.8-0.3,1.5l-3,10.4
			c-0.4,1.3-0.6,2.4-0.6,3c0,0.8,0.3,1.4,0.9,1.9s1.4,0.8,2.4,0.8c2,0,4-1.2,5.9-3.6c0.1,0.1,0.1,0.3,0.2,0.4c0.5,1.1,1.4,2,2.5,2.6
			s2.4,0.9,3.9,0.9c2.2,0,4.3-0.6,6.3-1.8c0.9-0.5,1.8-1.3,2.6-2.1l-0.9,3h6l2.2-7.1c2.1-4.3,4.2-7.3,6.3-9.3c1-1,1.8-1.4,2.4-1.4
			c0.2,0,0.3,0.1,0.5,0.2c0.1,0.1,0.2,0.3,0.2,0.5c0,0.3-0.1,0.8-0.3,1.6l-3,10.4c-0.4,1.3-0.6,2.3-0.6,3c0,0.8,0.3,1.4,0.9,1.9
			c0.6,0.5,1.4,0.8,2.4,0.8c1.1,0,2.3-0.4,3.6-1.3s2.6-2.4,4-4.7L87.1,80.4L87.1,80.4z M30.8,71.1l-3.6,12.2
			c-0.2,0.2-0.3,0.3-0.5,0.4c-0.3,0.2-0.6,0.4-0.8,0.4c-0.2,0-0.3-0.1-0.5-0.2c-0.1-0.2-0.2-0.3-0.2-0.5c0-0.3,0.1-1,0.4-1.9
			l4.3-14.9c0.3,0,0.5,0.1,0.7,0.1c0.3,0.1,0.5,0.3,0.6,0.4c0.1,0.2,0.2,0.4,0.2,0.7C31.4,68.4,31.2,69.5,30.8,71.1z M62.4,83.2
			C61.2,83.7,60.1,84,59,84c-1.2,0-2.2-0.5-3.1-1.4s-1.3-2.2-1.3-3.8c0-2,0.4-4.1,1.3-6.4c0.8-2.2,2.1-4.1,3.6-5.5
			c1.2-1.1,2.5-1.7,3.8-1.7c0.5,0,0.9,0.1,1.3,0.4c0.2,0.2,0.4,0.4,0.4,0.7s-0.3,0.7-0.9,1.2c-0.9,0.6-1.3,1.4-1.3,2.3
			c0,0.7,0.2,1.2,0.7,1.7s1.1,0.7,1.9,0.7c0.9,0,1.6-0.4,2.3-1.1c0.3-0.4,0.6-0.8,0.7-1.2l-3.3,11.5C64.3,82.2,63.4,82.8,62.4,83.2z
			"/>
		<g id="XMLID_6_">
			<path id="XMLID_57_" class="st0" d="M20.2,89.5h0.4l0.9,5.2l1-5.1h0.4l1,5.1l0.8-5.2H25l-1,6h-0.3l-1-5.2l-1,5.2h-0.3
				C21.4,95.5,20.2,89.5,20.2,89.5z"/>
			<path id="XMLID_55_" class="st0" d="M28.8,89.5h2.1v0.3h-1.7v2.4h1.4v0.3h-1.4v2.6h1.7v0.3h-2.1C28.8,95.4,28.8,89.5,28.8,89.5z"
				/>
			<path id="XMLID_51_" class="st0" d="M34.9,89.5h1.2c0.5,0,0.9,0.1,1.1,0.4s0.3,0.6,0.3,1.1c0,0.3-0.1,0.6-0.2,0.8
				c-0.1,0.2-0.3,0.4-0.5,0.5c0.3,0.1,0.5,0.3,0.6,0.6c0.1,0.3,0.2,0.6,0.2,0.9c0,0.5-0.1,1-0.3,1.3c-0.2,0.3-0.5,0.5-1.1,0.5h-1.4
				v-6.1C34.8,89.5,34.9,89.5,34.9,89.5z M36.3,92.1c0.3,0,0.5-0.1,0.6-0.3c0.1-0.2,0.2-0.5,0.2-0.8c0-0.4-0.1-0.7-0.2-0.9
				c-0.2-0.2-0.4-0.3-0.9-0.3h-0.7v2.3C35.3,92.1,36.3,92.1,36.3,92.1z M36.2,95.1c0.3,0,0.5-0.1,0.6-0.2s0.2-0.3,0.3-0.5
				c0.1-0.2,0.1-0.5,0.1-0.8c0-0.4-0.1-0.7-0.2-0.9s-0.4-0.4-0.7-0.4h-1V95L36.2,95.1L36.2,95.1z"/>
			<path id="XMLID_30_" class="st0" d="M46.1,89.5h1.3c0.6,0,1,0.2,1.2,0.5s0.3,0.7,0.3,1.3v2.5c0,0.6-0.1,1-0.3,1.3
				s-0.6,0.5-1.2,0.5h-1.3V89.5z M47.4,95.1c0.3,0,0.5-0.1,0.7-0.2s0.3-0.3,0.3-0.5c0.1-0.2,0.1-0.5,0.1-0.8v-2.4
				c0-0.5-0.1-0.8-0.2-1.1c-0.2-0.2-0.5-0.4-0.9-0.4h-0.9V95L47.4,95.1L47.4,95.1z"/>
			<path id="XMLID_26_" class="st0" d="M53,89.5h2.1v0.3h-1.7v2.4h1.4v0.3h-1.4v2.6h1.7v0.3H53C53,95.4,53,89.5,53,89.5z"/>
			<path id="XMLID_24_" class="st0" d="M58.7,94l0.3-0.1c0.1,0.4,0.2,0.8,0.3,1c0.2,0.2,0.4,0.3,0.8,0.3c0.6,0,1-0.3,1-1
				c0-0.2-0.1-0.5-0.2-0.7s-0.3-0.4-0.6-0.7l-1.1-1.1c-0.3-0.3-0.5-0.7-0.5-1.1s0.1-0.7,0.4-0.9c0.2-0.2,0.6-0.3,1-0.3
				s0.8,0.1,1,0.3c0.2,0.2,0.4,0.6,0.4,1.2L61.2,91c0-0.4-0.1-0.8-0.3-1s-0.4-0.3-0.8-0.3c-0.3,0-0.5,0.1-0.7,0.2s-0.3,0.4-0.3,0.7
				c0,0.2,0,0.3,0.1,0.5c0.1,0.1,0.2,0.3,0.3,0.5l1.1,1.1c0.3,0.3,0.5,0.5,0.6,0.8c0.2,0.3,0.2,0.5,0.2,0.8c0,0.4-0.1,0.8-0.4,1
				c-0.2,0.2-0.6,0.3-1,0.3C59.3,95.5,58.8,95,58.7,94z"/>
			<path id="XMLID_22_" class="st0" d="M65.4,89.5h0.4v6h-0.4V89.5z"/>
			<path id="XMLID_20_" class="st0" d="M70.2,95c-0.2-0.3-0.3-0.8-0.3-1.3v-2.5c0-0.6,0.1-1,0.3-1.3s0.6-0.5,1.1-0.5
				s0.9,0.1,1.1,0.4s0.3,0.7,0.3,1.3v0.2h-0.4v-0.2c0-0.5-0.1-0.8-0.2-1s-0.4-0.3-0.8-0.3s-0.7,0.1-0.8,0.4
				c-0.1,0.2-0.2,0.6-0.2,1.1v2.6c0,0.5,0.1,0.8,0.2,1.1c0.2,0.2,0.4,0.4,0.8,0.4s0.6-0.1,0.8-0.4c0.1-0.2,0.2-0.6,0.2-1.1V93h-1
				v-0.3h1.3v2.9h-0.3l-0.1-0.7c-0.1,0.2-0.2,0.4-0.4,0.6c-0.2,0.1-0.4,0.2-0.7,0.2C70.8,95.5,70.4,95.4,70.2,95L70.2,95z"/>
			<path id="XMLID_10_" class="st0" d="M76.9,89.5h0.3l2,5.1v-5.1h0.4v6h-0.3l-2-5.1v5.1h-0.4L76.9,89.5L76.9,89.5z"/>
		</g>
	</g>
</g>
<g id="XMLID_2_">
	<path id="XMLID_143_" class="st1" d="M5.8,49l2,0.6l-2.3,3.1L5.8,49z"/>
	<path id="XMLID_142_" class="st2" d="M5.2,53.7l11.3-1.5l-8.7-2.1L5.2,53.7z"/>
	<path id="XMLID_141_" class="st3" d="M5.2,53.7l11.3-1.5L10,54L5.2,53.7z"/>
	<path id="XMLID_140_" class="st4" d="M6.4,54l2.3,1.4l1.1-1.2L6.4,54z"/>
	<path id="XMLID_139_" class="st2" d="M8.7,55.5l-3.3,2V54L8.7,55.5z"/>
	<path id="XMLID_138_" class="st5" d="M4.9,52.9l-3-5.9l3.8,1.7L4.9,52.9z"/>
	<path id="XMLID_137_" class="st6" d="M-16.5,62l13.2,23L1,73.7L-16.5,62z"/>
	<path id="XMLID_136_" class="st1" d="M-17.1,60.7l-2.7-3.3l5-5.2L-17.1,60.7z"/>
	<path id="XMLID_135_" class="st3" d="M-17.1,62.7L-4,86.1l-7,5.9L-17.1,62.7z"/>
	<path id="XMLID_134_" class="st7" d="M-11.8,90.9l-6.3-30.7l-1.9-2.7l-2.4,1.1L-11.8,90.9z"/>
	<path id="XMLID_133_" class="st8" d="M-23.1,58.9l-5.9-1.5L-12.8,90L-23.1,58.9z"/>
	<path id="XMLID_132_" class="st9" d="M-28.8,59.9l-9.9,4.4l19.2,13.4L-28.8,59.9z"/>
	<path id="XMLID_131_" class="st10" d="M-19.5,79.2l1.1,18.6l6.6-5.4L-19.5,79.2z"/>
	<path id="XMLID_130_" class="st11" d="M-19.8,78.1l-26-4.1l7.1-8.2L-19.8,78.1z"/>
	<path id="XMLID_129_" class="st12" d="M-19.8,79.7l-19.8,15.8l20.1,3.3L-19.8,79.7z"/>
	<path id="XMLID_128_" class="st13" d="M-46.1,74.6l11.6,6.8l14.2-2.8L-46.1,74.6z"/>
	<path id="XMLID_127_" class="st7" d="M-19.8,78.9l-14.6,3.3l-4.8,12.3L-19.8,78.9z"/>
	<path id="XMLID_126_" class="st14" d="M-35.5,82.3l-16.9,3.1l2.7,0.7L-35.5,82.3z"/>
	<path id="XMLID_125_" class="st7" d="M-37.2,83.2l-12.2,6.2l0.2-2.9L-37.2,83.2z"/>
	<path id="XMLID_124_" class="st15" d="M-36,83.1l-13.9,7l-2.3,2.3L-36,83.1z"/>
	<path id="XMLID_123_" class="st12" d="M-55.9,82.4l-3.9-1.1l-22.1-4.9l1.5-1.8L-55.9,82.4z"/>
	<path id="XMLID_122_" class="st10" d="M-35.3,83.1l-16.1,9.8l4.8,2.4L-35.3,83.1z"/>
	<path id="XMLID_121_" class="st16" d="M-35.3,83.1l-11.3,12.2l6.7-0.3L-35.3,83.1z"/>
	<path id="XMLID_120_" class="st12" d="M-35.1,81.9l-14,2.5l-2.7-5.5l5.5-4L-35.1,81.9z"/>
	<path id="XMLID_119_" class="st7" d="M-50.2,84.7l-4.3,0.7h-4.9l4.2-2.1L-50.2,84.7z"/>
	<path id="XMLID_118_" class="st17" d="M-49.6,84.4l-5-1.8l2.9-3.1L-49.6,84.4z"/>
	<path id="XMLID_117_" class="st18" d="M-55.8,82.9l-3.9,1.8l-2.6-2L-55.8,82.9z"/>
	<path id="XMLID_116_" class="st19" d="M-56.1,82.6l-6-0.4l2.3-0.8L-56.1,82.6z"/>
	<path id="XMLID_115_" class="st20" d="M-56.1,82.2l-24.2-8L-84,70L-56.1,82.2z"/>
	<path id="XMLID_114_" class="st21" d="M-55.7,82.1l-18-13.4l-9.6-0.9l-0.5,1.7L-55.7,82.1z"/>
	<path id="XMLID_113_" class="st12" d="M-55.1,82.3l-6.1-13.6l-10.5,0.8L-55.1,82.3z"/>
	<path id="XMLID_112_" class="st13" d="M-54.9,82.1l-5-13.1l8.4,2l-2.3,10.2L-54.9,82.1z"/>
	<path id="XMLID_111_" class="st22" d="M-50.8,71.1l5.4-1.4l-6.1,8l-1.9,3.1L-50.8,71.1z"/>
	<path id="XMLID_110_" class="st19" d="M-50.8,77.7l6.4-8.2l5.2-4.6l-6.9,8.8L-50.8,77.7z"/>
	<path id="XMLID_109_" class="st11" d="M-36.9,96.3l9.3,6.1l-0.8,5.6l6.5-8.6L-36.9,96.3z"/>
	<path id="XMLID_108_" class="st13" d="M1.7,47.4h-7.8L5.3,57.7L4.9,54L1.7,47.4z"/>
	<path id="XMLID_107_" class="st23" d="M4,57.5l-10.8-10l-7.5,3.9L4,57.5z"/>
	<path id="XMLID_106_" class="st24" d="M4.7,58l-20.3,4L0.9,73L4.7,58z"/>
	<path id="XMLID_105_" class="st25" d="M-16.5,61.6l2.2-9.3l17.8,5.4L-16.5,61.6z"/>
</g>
</svg>
