<?xml version="1.0" encoding="utf-8"?>
<!-- Generator: Adobe Illustrator 19.0.0, SVG Export Plug-In . SVG Version: 6.00 Build 0)  -->
<svg version="1.1" id="Layer_1" xmlns="http://www.w3.org/2000/svg" xmlns:xlink="http://www.w3.org/1999/xlink" x="0px" y="0px"
	 viewBox="0 0 235 88" style="enable-background:new 0 0 235 88;" xml:space="preserve">
<style type="text/css">
	.st0{fill:#FF5533;}
</style>
<path class="st0" d="M113.3,46c0-1.2,1-2.3,2.2-2.3c1.2,0,2.3,1,2.3,2.2c0,1.2-1,2.3-2.2,2.3h0C114.3,48.2,113.3,47.3,113.3,46
	C113.3,46,113.3,46,113.3,46L113.3,46z M117.3,42c0,1.2,1,2.2,2.2,2.2s2.2-1,2.2-2.2c0-1.2-1-2.2-2.2-2.2
	C118.3,39.8,117.3,40.8,117.3,42L117.3,42z"/>
<path id="XMLID_21_" class="st0" d="M105.1,34.1v4c3.1,0,5.6,2.6,5.6,5.9c0,3.3-2.5,5.9-5.6,5.9c-3.1,0-5.6-2.5-5.6-5.9h-4.4
	c0,5.5,4.4,9.9,9.9,9.9c5.5,0,9.9-4.3,9.9-9.9S110.6,34.1,105.1,34.1z M149.9,71.6v-3.8h7v-3.8h-7v-3.8h7.8v-3.8h-12v18.9h12.2v-3.8
	L149.9,71.6L149.9,71.6z M133.1,56.5h-6.2v19h6.2c5.9,0,10-4,10-9.5S138.9,56.5,133.1,56.5z M133.4,71.6h-2.3V60.3h2.3
	c3.2,0,5.3,2.4,5.3,5.7C138.7,69.2,136.6,71.6,133.4,71.6L133.4,71.6z M110.2,68.2c0,2.2-1.6,3.8-3.7,3.8c-2.1,0-3.7-1.6-3.7-3.8
	V56.5h-4.2v11.5c0,4.5,3.3,7.8,7.9,7.8c4.6,0,7.9-3.3,7.9-7.8V56.5h-4.2V68.2z M133.4,46.1V34.5h-4.2v11.6c0,2.2-1.6,3.8-3.7,3.8
	c-2.1,0-3.7-1.6-3.7-3.8V34.5h-4.2v11.6c0,4.4,3.3,7.8,7.9,7.8S133.4,50.5,133.4,46.1z M84.4,53.5h4.2v-7.2l7.1-11.8h-4.8l-4.5,7.8
	L82,34.5h-4.8l7.1,11.8V53.5z M112.6,12.5H127v3.8h-14.4V12.5z M110.8,27.7h-7.9v-3.8h7v-3.8h-7v-3.7h7.8v-3.8h-12v18.9h12.1V27.7z
	 M143.1,48.7l-2.2-2.3l2.2-2.4l-2.2-2.3l2.2-2.4l-2.2-2.3l2.4-2.5h-4.4l-2.4,2.5l2.2,2.3l-2.2,2.4l2.2,2.3l-2.2,2.4l2.2,2.3
	l-2.2,2.3l2.3,2.4h4.4l-2.4-2.4L143.1,48.7L143.1,48.7z M122.5,65.4c0.6-0.6,1.7-1.5,1.7-3.3s-1.1-2.7-1.7-3.2l-0.1-0.1
	c-0.2-0.3-0.4-0.6-0.4-1v-1.3h-4.3v1.8h0v0.1c0,1.8,1.1,2.7,1.7,3.3s0.4,0.4,0.4,0.6s0,0.2-0.4,0.6s-1.6,1.4-1.7,3.1v0.3
	c0.1,1.6,1.1,2.5,1.7,3.1c0.6,0.5,0.4,0.4,0.4,0.6c0,0.2,0,0.2-0.4,0.6s-1.7,1.5-1.7,3.3v0h0v1.8h4.3v-1.3c0-0.4,0.1-0.7,0.4-1
	l0.1-0.1c0.6-0.6,1.7-1.5,1.7-3.3s-1.1-2.7-1.7-3.3c-0.6-0.6-0.4-0.4-0.4-0.5C122,65.8,122.1,65.8,122.5,65.4L122.5,65.4z
	 M117.7,27.9h4.2v3.5h-4.2V27.9z M117.7,22.9h4.2v3.5h-4.2V22.9z M117.7,17.9h4.2v3.5h-4.2V17.9z M154.2,53.5l-5.2-7.2
	c2.5-0.7,4.3-3.1,4.3-5.7c0-3.4-2.8-6-6.4-6h-2.5v3.8h2.3c1.3,0.1,2.2,1.2,2.1,2.5c-0.1,1.1-1,1.9-2.1,2.1h-2.3v3.6l4.6,6.9
	L154.2,53.5z M95,17.5c-1.1-3.3-4.6-5.4-8.7-5.4c-5.1,0-9,3.5-9,8.5v2.6c0,5,3.6,8.6,8.1,8.6c2.6,0,5-1.2,6.5-3.3v2.9h3.7V21h-10
	v3.6h5.5c-0.4,2-2.3,3.5-4.7,3.5s-4.9-2-4.9-4.8v-2.6c0-2.7,2-4.7,4.8-4.7c2.2,0,4.1,1.2,4.8,2.9L95,17.5z M95,61.5
	c-1.1-3.3-4.6-5.4-8.7-5.4c-5.1,0-9,3.5-9,8.5v2.6c0,5,3.6,8.6,8.1,8.6c2.6,0,5-1.2,6.5-3.3v2.9h3.7V65h-10v3.6h5.5
	c-0.4,2-2.3,3.5-4.7,3.5s-4.9-2-4.9-4.8v-2.6c0-2.7,2-4.7,4.8-4.7c2.2,0,4.1,1.2,4.8,2.9L95,61.5z"/>
</svg>
