<?xml version="1.0" encoding="utf-8"?>
<!-- Generator: Adobe Illustrator 19.0.0, SVG Export Plug-In . SVG Version: 6.00 Build 0)  -->
<svg version="1.1" id="Layer_1" xmlns="http://www.w3.org/2000/svg" xmlns:xlink="http://www.w3.org/1999/xlink" x="0px" y="0px"
	 viewBox="-41 26 152 38" style="enable-background:new -41 26 152 38;" xml:space="preserve">
<g>
	<path d="M-3.6,44.6l-5.7,5.7c-0.4,0.4-1,0.4-1.3,0c0,0,0,0,0,0c-0.4-0.4-0.4-1,0-1.3c0,0,0,0,0,0l5.7-5.7c0.4-0.4,1-0.3,1.3,0
		C-3.3,43.7-3.3,44.3-3.6,44.6 M-13.6,47.4c-2,0-3.7-1.7-3.7-3.7c0-2,1.7-3.7,3.7-3.7c2,0,3.7,1.7,3.7,3.7
		C-10,45.8-11.6,47.4-13.6,47.4 M-16.6,50.4c-0.4,0.4-1,0.4-1.3,0c0,0,0,0,0,0l-5.7-5.7c-0.4-0.4-0.4-1,0-1.3c0.4-0.4,1-0.4,1.3,0
		l0,0l5.7,5.7C-16.2,49.4-16.2,50-16.6,50.4C-16.6,50.4-16.6,50.4-16.6,50.4 M-13.6,28.8c-8.8,0-15.9,7.1-15.9,15.9
		c0,8.8,7.1,15.9,15.9,15.9S2.2,53.5,2.2,44.7C2.2,35.9-4.9,28.8-13.6,28.8 M-13.6,41.9c-1,0-1.8,0.8-1.8,1.8c0,1,0.8,1.8,1.8,1.8
		s1.8-0.8,1.8-1.8C-11.8,42.7-12.7,41.9-13.6,41.9 M11.6,38.7h1.3c0,0,0,0,0,0l3.1,12.6c0,0,0,0,0,0h3c0,0,0,0,0,0l2.5-9.2
		c0.2-0.6,0.2-1.3,0.2-1.3h0.1c0,0,0.1,0.7,0.2,1.3l2.5,9.2c0,0,0,0,0,0h3c0,0,0,0,0,0l3.1-12.6c0,0,0,0,0,0H32c0,0,0,0,0,0
		c0,0,0,0,0,0v-2c0,0,0,0,0,0c0,0,0,0,0,0h-5.7c0,0,0,0,0,0c0,0,0,0,0,0v2c0,0,0,0,0,0H28c0,0,0,0,0,0L26.1,47
		C26,47.6,26,48.3,26,48.3h-0.1c0,0-0.1-0.7-0.2-1.3l-2.7-10.4c0,0,0,0,0,0h-2.1c0,0,0,0,0,0L18,47c-0.2,0.6-0.2,1.3-0.2,1.3h-0.1
		c0,0,0-0.7-0.2-1.3l-1.9-8.3c0,0,0,0,0,0c0,0,0,0,0,0h1.7c0,0,0,0,0,0c0,0,0,0,0,0v-2c0,0,0,0,0,0c0,0,0,0,0,0h-5.7c0,0,0,0,0,0
		c0,0,0,0,0,0L11.6,38.7C11.6,38.7,11.6,38.7,11.6,38.7z M31.2,46c0,3,2.2,5.5,5.7,5.5c2.5,0,4.1-1.3,4.2-1.5c0,0,0,0,0,0l-1-1.8
		c0,0,0,0,0,0c-0.2,0.1-1.4,1.1-3,1.1c-1.6,0-3-1-3.2-2.9c0,0,0,0,0,0c0,0,0,0,0,0h7.2c0,0,0,0,0,0c0-0.1,0.1-0.6,0.1-0.9
		c0-2.8-1.7-5-4.7-5C33.4,40.5,31.2,42.8,31.2,46z M34,44.8C34,44.8,34,44.8,34,44.8C34,44.8,34,44.8,34,44.8
		c0.2-1.4,1.2-2.3,2.5-2.3c1.1,0,2,0.9,2,2.3c0,0,0,0,0,0c0,0,0,0,0,0C38.5,44.8,34,44.8,34,44.8z M42.5,47.9c0,2.9,1.5,3.4,3.2,3.4
		c0.5,0,0.8,0,0.9-0.1c0,0,0,0,0,0v-2.1c0,0-0.2,0-0.5,0c-0.9,0-1.1-0.5-1.1-1.4V36.6c0,0,0,0,0,0c0,0,0,0,0,0h-4.2c0,0,0,0,0,0
		c0,0,0,0,0,0v1.9c0,0,0,0,0,0h1.6c0,0,0,0,0,0L42.5,47.9L42.5,47.9z M46.9,46c0,3.4,2.7,5.5,5.8,5.5c2,0,3.6-0.9,4.3-1.6
		c0,0,0,0,0,0l-0.9-1.8c0,0,0,0,0,0c-0.6,0.5-1.8,1.3-3.3,1.3c-1.8,0-3.3-1.2-3.3-3.3c0-1.9,1.2-3.2,3.1-3.2c0.9,0,2,0.3,2,1v0.7
		c0,0,0,0,0,0h2.2c0,0,0,0,0,0c0,0,0,0,0,0V43c0-1.9-2.6-2.5-4.3-2.5C49.3,40.5,46.9,42.9,46.9,46z M57.4,46c0,3.2,2.6,5.5,5.8,5.5
		c2.9,0,5.3-1.9,5.7-4.7c0.5-3.4-2.3-6.3-5.7-6.4C60,40.5,57.4,42.8,57.4,46L57.4,46z M60.1,46c0-1.9,1.4-3.3,3.1-3.3
		c1.7,0,3.1,1.3,3.1,3.3c0,2-1.4,3.3-3.1,3.3C61.5,49.3,60.1,48,60.1,46z M69.7,51.3h5.6c0,0,0,0,0,0c0,0,0,0,0,0v-1.9c0,0,0,0,0,0
		c0,0,0,0,0,0h-1.5c0,0,0,0,0,0c0,0,0,0,0,0v-2.5c0-1.9,0.8-3.9,2.7-3.9c1.2,0,1.4,1,1.4,2.1v6.3c0,0,0,0,0,0H82c0,0,0,0,0,0
		c0,0,0,0,0,0v-1.9c0,0,0,0,0,0c0,0,0,0,0,0h-1.5c0,0,0,0,0,0v-2.7c0-1.9,0.9-3.7,2.7-3.7c1.2,0,1.4,0.9,1.4,2.1v6.3c0,0,0,0,0,0
		h4.1c0,0,0,0,0,0c0,0,0,0,0,0v-1.9c0,0,0,0,0,0c0,0,0,0,0,0h-1.5c0,0,0,0,0,0c0,0,0,0,0,0v-4.8c0-2.8-1.3-4-3.4-4
		c-1.7,0-3.1,1.1-3.7,2.3h0c-0.4-1.6-1.5-2.3-2.9-2.3c-1.7,0-3.1,1.3-3.6,2.4h0c0,0,0-0.2,0-0.5v-0.5c0-0.7-0.5-1.2-1.4-1.2h-2.7
		c0,0,0,0,0,0v1.9c0,0,0,0,0,0h1.1c0.3,0,0.5,0.2,0.5,0.5v6.1c0,0,0,0,0,0c0,0,0,0,0,0h-1.5c0,0,0,0,0,0c0,0,0,0,0,0L69.7,51.3
		C69.6,51.3,69.6,51.3,69.7,51.3L69.7,51.3z M89,46c0,3,2.2,5.5,5.7,5.5c2.5,0,4.1-1.3,4.2-1.5c0,0,0,0,0,0l-1-1.8c0,0,0,0,0,0
		c-0.2,0.1-1.4,1.1-3,1.1c-1.6,0-3-1-3.2-2.9c0,0,0,0,0,0h7.2c0,0,0,0,0,0c0-0.1,0.1-0.6,0.1-0.9c0-2.8-1.7-5-4.7-5
		C91.2,40.5,89,42.8,89,46L89,46z M91.8,44.8C91.7,44.8,91.7,44.8,91.8,44.8c0.2-1.4,1.2-2.3,2.5-2.3c1.1,0,2,0.9,2,2.3c0,0,0,0,0,0
		c0,0,0,0,0,0H91.8L91.8,44.8z"/>
</g>
</svg>
